<svg fill="#861001" xmlns:dc="http://purl.org/dc/elements/1.1/" xmlns:cc="http://creativecommons.org/ns#" xmlns:rdf="http://www.w3.org/1999/02/22-rdf-syntax-ns#" xmlns:svg="http://www.w3.org/2000/svg" xmlns="http://www.w3.org/2000/svg" xmlns:sodipodi="http://sodipodi.sourceforge.net/DTD/sodipodi-0.dtd" xmlns:inkscape="http://www.inkscape.org/namespaces/inkscape" version="1.1" x="0px" y="0px" viewBox="0 0 100 100"><g transform="translate(0,-952.36218)"><path style="font-size:medium;font-style:normal;font-variant:normal;font-weight:normal;font-stretch:normal;text-indent:0;text-align:start;text-decoration:none;line-height:normal;letter-spacing:normal;word-spacing:normal;text-transform:none;direction:ltr;block-progression:tb;writing-mode:lr-tb;text-anchor:start;baseline-shift:baseline;opacity:1;color:#000000;fill:#861001;fill-opacity:1;stroke:none;stroke-width:6;marker:none;visibility:visible;display:inline;overflow:visible;enable-background:accumulate;font-family:Sans;-inkscape-font-specification:Sans" d="M 12.6875 5 A 3.0003 3.0003 0 0 0 10 8 L 10 80 A 3.0003 3.0003 0 1 0 16 80 L 16 11 L 74 11 L 74 21 A 3.0003 3.0003 0 1 0 80 21 L 80 8 A 3.0003 3.0003 0 0 0 77 5 L 13 5 A 3.0003 3.0003 0 0 0 12.6875 5 z M 23.6875 20 A 3.0040663 3.0040663 0 1 0 24 26 L 38 26 A 3.0003 3.0003 0 1 0 38 20 L 24 20 A 3.0003 3.0003 0 0 0 23.6875 20 z M 86.625 20 A 3.0003 3.0003 0 0 0 84.59375 21.1875 L 44.59375 75.1875 A 3.0031165 3.0031165 0 1 0 49.40625 78.78125 L 59.09375 65.71875 C 64.360464 65.046946 69.467593 62.883053 74 60 L 74 89 L 13 89 A 3.0003 3.0003 0 1 0 13 95 L 77 95 A 3.0003 3.0003 0 0 0 80 92 L 80 55.5 C 85.739353 50.437387 90 44.800219 90 39 L 90 23 A 3.0003 3.0003 0 0 0 86.625 20 z M 23.6875 30 A 3.0040663 3.0040663 0 1 0 24 36 L 58 36 A 3.0003 3.0003 0 1 0 58 30 L 24 30 A 3.0003 3.0003 0 0 0 23.6875 30 z M 84 32.09375 L 84 39 C 84 41.19759 80.877262 46.8098 75.6875 51.3125 C 72.533854 54.0486 68.713728 56.3492 64.84375 57.9375 L 84 32.09375 z M 23.6875 40 A 3.0040663 3.0040663 0 1 0 24 46 L 58 46 A 3.0003 3.0003 0 1 0 58 40 L 24 40 A 3.0003 3.0003 0 0 0 23.6875 40 z M 23.6875 50 A 3.0040663 3.0040663 0 1 0 24 56 L 38 56 A 3.0003 3.0003 0 1 0 38 50 L 24 50 A 3.0003 3.0003 0 0 0 23.6875 50 z " transform="translate(0,952.36218)"></path></g></svg>